<svg width="189" height="30" viewBox="0 0 189 30" fill="none" xmlns="http://www.w3.org/2000/svg">
<g clip-path="url(#clip0_324_4408)">
<path d="M38.8475 17.6087C38.8475 23.9578 33.5855 29.1304 27.0623 29.1304C20.5392 29.1304 15.2771 23.9578 15.2771 17.6087C15.2771 11.2596 20.5392 6.08694 27.0623 6.08694C33.5855 6.08694 38.8475 11.2596 38.8475 17.6087Z" stroke="#A6959B" stroke-width="1.5"/>
<path d="M29.5192 20.3953C29.7938 22.6517 29.0793 22.986 27.4989 23.2543C28.7156 24.8266 29.4931 25.6298 31.5395 26.5217C33.5147 25.6306 34.3132 24.8832 35.3557 23.2543C34.1185 22.838 33.512 22.5065 33.7844 20.3953C33.8388 19.3663 34.1969 18.851 34.9067 17.9447C35.1666 17.2781 35.2307 16.9384 34.9067 16.5151C34.637 14.1767 33.9772 13.1791 31.5395 13.0435C29.0096 13.2237 28.5141 14.362 28.1724 16.5151C27.8277 16.9981 27.9357 17.3347 28.1724 17.9447C29.1956 19.1627 29.6147 19.7642 29.5192 20.3953Z" fill="#A6959B"/>
<path d="M47.5774 17.6087C47.5774 23.9578 42.3153 29.1304 35.7922 29.1304C29.269 29.1304 24.007 23.9578 24.007 17.6087C24.007 11.2596 29.269 6.08694 35.7922 6.08694C42.3153 6.08694 47.5774 11.2596 47.5774 17.6087Z" stroke="#A6959B" stroke-width="1.5"/>
<path fill-rule="evenodd" clip-rule="evenodd" d="M54.9977 0L49.7598 1.604V16.9565L49.7624 16.9529C49.7607 17.0264 49.7598 17.1 49.7598 17.1739C49.7598 22.3366 53.9615 26.5217 59.1443 26.5217C64.3272 26.5217 68.5289 22.3366 68.5289 17.1739C68.5289 12.0113 64.3272 7.82609 59.1443 7.82609C57.6559 7.82609 56.2482 8.1713 54.9977 8.78578V0ZM59.1443 21.3043C61.4346 21.3043 63.291 19.4551 63.291 17.1739C63.291 14.8927 61.4346 13.0435 59.1443 13.0435C56.8541 13.0435 54.9977 14.8927 54.9977 17.1739C54.9977 19.4551 56.8541 21.3043 59.1443 21.3043ZM0 23.913L3.49192 20.8696C5.71496 23.2399 7.84071 21.0714 7.85681 20.2174C7.87292 19.3634 7.85681 2.82609 7.85681 2.82609L12.6582 1.08696C12.6582 1.08696 12.6849 17.5352 12.6582 20.2174C12.6315 22.8996 8.18239 30.0597 0 23.913ZM126.582 8.26087H131.602V20.4348C131.602 28.0435 115.51 28.0435 115.452 20.4348C115.393 12.8261 115.451 8.26087 115.451 8.26087H120.472C120.472 9.83522 120.462 11.1677 120.454 12.4274V12.4291V12.4308V12.4327V12.4347V12.4368V12.439V12.4413V12.4439C120.438 14.7778 120.423 16.8647 120.472 19.7826C120.511 22.1742 126.621 22.4249 126.582 19.7826V8.26087ZM97.1189 21.3043C99.4092 21.3043 101.266 19.4551 101.266 17.1739C101.266 14.8927 99.4092 13.0435 97.1189 13.0435C94.8287 13.0435 92.9723 14.8927 92.9723 17.1739C92.9723 19.4551 94.8287 21.3043 97.1189 21.3043ZM97.1189 26.5217C102.302 26.5217 106.503 22.3366 106.503 17.1739C106.503 12.0113 102.302 7.82609 97.1189 7.82609C91.9361 7.82609 87.7344 12.0113 87.7344 17.1739C87.7344 22.3366 91.9361 26.5217 97.1189 26.5217ZM86.4249 4.78274L83.3695 7.82622C82.3935 7.11243 81.7995 6.72426 80.5323 6.08709C78.8204 5.42296 76.8222 5.21752 75.5127 6.08709C74.2032 6.95665 74.4215 8.69565 75.7309 9.78261C76.6292 10.5282 79.7467 11.8339 81.7842 12.6874C82.7174 13.0782 83.4241 13.3743 83.5878 13.4783C83.6567 13.5221 83.737 13.5705 83.8256 13.624C84.4066 13.9741 85.3442 14.5392 85.7702 15.4348C87.0771 18.1827 86.8902 19.9501 85.6388 22.3913C84.6201 24.107 83.9649 24.579 82.2783 25.4349C79.4402 26.404 77.6637 26.3943 74.2032 25.4349C72.7152 24.8885 71.4123 23.928 68.7471 21.7393L71.8025 18.261C75.201 21.647 79.0059 21.9124 80.5323 20.8697C82.0587 19.827 81.8418 18.0435 80.5323 17.174C79.2229 16.3047 73.112 13.6958 73.112 13.6958C71.4158 12.6564 71.0941 11.907 70.4298 10.3597L70.4289 10.3579L70.4258 10.3505L70.4254 10.3494L70.4245 10.3472C70.3765 10.2358 70.3268 10.1202 70.2748 10.0001C69.7043 8.31457 69.6201 6.52204 70.2748 5.21752C70.9296 3.91304 72.9968 1.93139 75.5127 1.3045C77.435 0.986635 78.5297 0.951839 80.5323 1.3045C83.2944 2.15427 84.6244 2.87084 86.4249 4.78274ZM108.249 26.5217V2.21014L113.487 0V26.5217H108.249ZM134.002 4.13043V18.913C134.131 23.824 139.895 26.3043 144.478 26.3043V21.5217C141.532 21.0578 139.65 20.4471 139.129 18.0435V12.8261H144.478V8.26087H139.129V2.17391L134.002 4.13043ZM145.788 26.5217V8.18839L151.025 6.52174V26.5217H145.788ZM161.283 21.3043C163.573 21.3043 165.43 19.4551 165.43 17.1739C165.43 14.8927 163.573 13.0435 161.283 13.0435C158.993 13.0435 157.136 14.8927 157.136 17.1739C157.136 19.4551 158.993 21.3043 161.283 21.3043ZM161.283 26.5217C166.466 26.5217 170.667 22.3366 170.667 17.1739C170.667 12.0113 166.466 7.82609 161.283 7.82609C156.1 7.82609 151.898 12.0113 151.898 17.1739C151.898 22.3366 156.1 26.5217 161.283 26.5217ZM172.421 8.26087V26.5217H177.659V15.4924C178.964 12.9266 183.957 13.5583 183.988 16.0831C184.021 18.786 183.98 26.5217 183.98 26.5217H188.782C188.782 26.5217 188.79 23.2608 188.79 14.9962C188.79 9.76348 182.4 7.95891 177.659 9.36383V8.26087H172.421Z" fill="url(#paint0_linear_324_4408)"/>
</g>
<defs>
<linearGradient id="paint0_linear_324_4408" x1="-4.3649" y1="2.73018" x2="5.60188" y2="60.2354" gradientUnits="userSpaceOnUse">
<stop stop-color="#95D3FE"/>
<stop offset="0.483559" stop-color="#5FC3FF"/>
<stop offset="0.696466" stop-color="#3AB6FC"/>
</linearGradient>
<clipPath id="clip0_324_4408">
<rect width="189" height="30" fill="white"/>
</clipPath>
</defs>
</svg>
