<svg width="18" height="16" viewBox="0 0 18 16" fill="none" xmlns="http://www.w3.org/2000/svg">
<g id="&#208;&#154;&#208;&#190;&#208;&#187;&#208;&#184;&#209;&#135;&#208;&#181;&#209;&#129;&#209;&#130;&#208;&#178;&#208;&#190; &#208;&#186;&#208;&#190;&#208;&#188;&#208;&#188;&#208;&#181;&#208;&#189;&#209;&#130;&#208;&#176;&#209;&#128;&#208;&#184;&#208;&#181;&#208;&#178;">
<g id="Union">
<mask id="path-1-inside-1_1202_22105" fill="white">
<path fill-rule="evenodd" clip-rule="evenodd" d="M9.41763 14.277C14.1575 14.277 17.9999 11.081 17.9999 7.13852C17.9999 3.19603 14.1575 0 9.41763 0C4.67777 0 0.835361 3.19603 0.835361 7.13852C0.835361 8.11198 1.06962 9.03992 1.4938 9.88548L0 16L6.9179 13.9695C7.70882 14.1695 8.54812 14.277 9.41763 14.277Z"/>
</mask>
<path d="M1.4938 9.88548L3.43666 10.3601L3.61116 9.64588L3.28147 8.98869L1.4938 9.88548ZM0 16L-1.94286 15.5254L-2.76641 18.8964L0.563266 17.919L0 16ZM6.9179 13.9695L7.40817 12.0305L6.87868 11.8966L6.35463 12.0505L6.9179 13.9695ZM15.9999 7.13852C15.9999 9.64737 13.4136 12.277 9.41763 12.277V16.277C14.9014 16.277 19.9999 12.5147 19.9999 7.13852H15.9999ZM9.41763 2C13.4136 2 15.9999 4.62968 15.9999 7.13852H19.9999C19.9999 1.76237 14.9014 -2 9.41763 -2V2ZM2.83536 7.13852C2.83536 4.62968 5.42165 2 9.41763 2V-2C3.93389 -2 -1.16464 1.76237 -1.16464 7.13852H2.83536ZM3.28147 8.98869C2.98968 8.40703 2.83536 7.78485 2.83536 7.13852H-1.16464C-1.16464 8.4391 -0.850442 9.67281 -0.293867 10.7823L3.28147 8.98869ZM1.94286 16.4746L3.43666 10.3601L-0.449061 9.41083L-1.94286 15.5254L1.94286 16.4746ZM6.35463 12.0505L-0.563266 14.081L0.563266 17.919L7.48116 15.8885L6.35463 12.0505ZM9.41763 12.277C8.71304 12.277 8.03843 12.1899 7.40817 12.0305L6.42762 15.9085C7.37921 16.1491 8.38321 16.277 9.41763 16.277V12.277Z" fill="#5B5B5B" mask="url(#path-1-inside-1_1202_22105)"/>
</g>
</g>
</svg>
