<svg width="20" height="21" viewBox="0 0 20 21" fill="none" xmlns="http://www.w3.org/2000/svg">
<g id="GOOD!">
<path id="Vector" d="M4 8.98717C4 8.5794 4.2793 8.21455 4.68482 8.0409C5.57053 7.66142 7.07929 6.89904 7.75982 5.86839C8.63693 4.53972 8.80236 2.13942 8.82921 1.58971C8.83297 1.51264 8.83083 1.43557 8.84211 1.35948C8.98766 0.406873 11.0121 1.51947 11.7882 2.69596C12.2098 3.33396 12.2635 4.17243 12.2195 4.8275C12.1717 5.52793 11.9456 6.20446 11.7237 6.87661L11.2511 8.30918H17.0825C17.2485 8.30917 17.4122 8.34408 17.5609 8.41118C17.7095 8.47828 17.8389 8.57575 17.9391 8.69592C18.0393 8.81609 18.1074 8.95571 18.1382 9.10382C18.169 9.25193 18.1616 9.4045 18.1165 9.54957L15.2322 18.8249C15.1685 19.0295 15.033 19.2096 14.8463 19.3378C14.6595 19.466 14.4318 19.5353 14.1977 19.5351H5.07423C4.78933 19.5351 4.51609 19.4323 4.31464 19.2494C4.11318 19.0664 4 18.8183 4 18.5596V8.98717Z" stroke="#5B5B5B" stroke-width="2" stroke-linecap="round" stroke-linejoin="round"/>
<path id="Line 6" d="M1 9.39111L1 18.9734" stroke="#5B5B5B" stroke-width="2" stroke-linecap="round"/>
</g>
</svg>
