<svg width="28" height="26" viewBox="0 0 28 26" fill="none" xmlns="http://www.w3.org/2000/svg">
<g id="&#208;&#147;&#208;&#187;&#208;&#176;&#208;&#183;">
<path id="Ellipse 19" d="M24.4299 12.9202C24.0164 14.2275 22.8259 15.7771 21.0151 17.0447C19.1133 18.3761 16.6405 19.3125 13.9708 19.3125C11.309 19.3125 8.84518 18.3496 6.94271 17.0007C5.13878 15.7215 3.94444 14.1732 3.51494 12.911C3.94103 11.653 5.10262 10.1483 6.86647 8.91438C8.72808 7.61211 11.1578 6.6875 13.8287 6.6875C16.5003 6.6875 19.0133 7.62529 20.9567 8.94183C22.8059 10.1946 24.016 11.7021 24.4299 12.9202Z" stroke="#5B5B5B" stroke-width="2"/>
<path id="Ellipse 20" d="M17.9412 13C17.9412 15.1274 16.1894 16.875 14 16.875C11.8106 16.875 10.0588 15.1274 10.0588 13C10.0588 10.8726 11.8106 9.125 14 9.125C16.1894 9.125 17.9412 10.8726 17.9412 13Z" stroke="#5B5B5B" stroke-width="2"/>
</g>
</svg>
